<svg xmlns="http://www.w3.org/2000/svg" fill="none" viewBox="0 0 1150 248">
    <path fill="currentColor" d="M938 40c-.5 2.24-1.09 4.19-2.02 6.29-1.07 2.96-1.23 5.19-1.24 8.33-.01 1.12-.01 2.23-.02 3.39 0 1.21 0 2.43.01 3.69-.01 1.93-.01 1.93-.02 3.91-.01 3.53-.01 7.06-.01 10.59 0 2.95-.01 5.9-.01 8.85-.01 6.96-.01 13.92-.01 20.88.01 7.17 0 14.35-.02 21.52-.02 6.17-.03 12.34-.02 18.5 0 3.68 0 7.36-.02 11.04-.01 4.11 0 8.21.01 12.31-.01 1.22-.02 2.44-.03 3.69.01 1.12.02 2.24.03 3.39v2.94c.53 3.8 2.01 6.62 5.06 8.99 3.48 1.04 6.69.81 10.31.69v4c-1.91 1.6-1.91 1.6-4.5 3.06-.84.49-1.67.97-2.53 1.48-7.06 3.48-12.75 4.95-20.66 4.84-1.24.01-1.24.01-2.51.03-4.69-.02-8.13-.18-11.8-3.41-1.81-3.19-1.81-3.19-3-6-.73.47-1.45.94-2.2 1.43-13.03 8.06-25.36 10.41-40.42 7.45-9.36-2.4-17.33-7.27-23.38-14.88-1.31-2.88-1.31-2.88-2-5l-2-1c-8-16.67-7.95-35.78-2-53 4.71-11.63 10.99-19.79 22-26 12.69-5.23 26.47-7.31 39.75-3.05 2.97 1.38 5.55 3.22 8.25 5.05.01-1.07.02-2.14.03-3.24.04-4.01.1-8.01.18-12.02.03-1.72.05-3.45.06-5.18.11-12.72.64-23.13 9.82-32.81 6.56-6 15.87-11.18 24.91-10.75Zm-64.59 76.23c-7.87 9.88-9.79 21.35-9.72 33.58 0 .97.01 1.94.01 2.93.17 10.45 1.44 20.95 8.83 28.91 5.23 4.87 10.73 7.43 17.91 7.73 5.41-.27 5.41-.27 13.56-3.38v-74c-10.66-2.66-21.76-3.91-30.59 4.23ZM575 40c-.29.64-.58 1.28-.88 1.94-2.95 8.05-3.41 15.71-3.38 24.25 0 1.18-.01 2.37-.01 3.6-.01 3.23-.01 6.46 0 9.7.01 3.39 0 6.79 0 10.19-.01 5.7 0 11.41.01 17.11.01 6.58.01 13.16 0 19.73-.01 5.67-.01 11.34-.01 17v10.13c-.01 3.76 0 7.53.01 11.29 0 1.11-.01 2.22-.01 3.36-.01 9.73-.01 9.73 3.52 18.64 3.85 2.33 8.37 2.19 12.75 2.06-.37 2.59-.76 3.77-2.68 5.6-10.42 6.95-21.93 9.06-34.32 7.4-4.38-2.42-6.76-4.52-9-9-.55.4-1.09.8-1.65 1.21-5.29 3.71-10.09 6.22-16.35 7.79-.86.25-1.72.5-2.6.76-10.91 2.6-23.29-.04-33.02-5.51-11.67-8.06-18.1-18.66-20.91-32.56-2.37-18.67.44-35.78 11.41-51.37 8.04-9.68 18.84-14.58 31.12-16.32 10.99-.82 22.05.02 31 7 0-1.13.01-2.26.01-3.42.02-4.23.08-8.46.14-12.69.03-1.83.04-3.65.05-5.47.04-12.29.6-21.33 8.74-31.11 6.43-6 17.22-11.55 26.06-11.31Zm-67 79c-9.22 13.15-9.19 31.25-6.58 46.45.6 2.64 1.41 5.04 2.39 7.55.32.82.63 1.65.96 2.5 3.72 7.55 9.56 10.65 17.23 13.5 7.49 1.45 11.83-.81 19-4v-73c-12.34-3.09-24.06-3.48-33 7ZM742 99v10c1.24-.91 2.48-1.81 3.75-2.75 10.86-7.14 22.31-8.89 35.11-6.78 7.29 1.89 13.59 5.57 18.52 11.28 5.82 11.66 5.75 24.08 5.8 36.86.02 2.38.04 4.77.07 7.16.03 3.72.06 7.44.08 11.16.01 3.62.05 7.24.1 10.86-.01 1.11-.01 2.21-.01 3.35.1 6.3.61 11.73 4.58 16.86 3.07 2.04 3.07 2.04 6 3-.5 1.49-.5 1.49-1 3-7.83 1.02-15.62 1.15-23.5 1.13-2.06 0-4.12 0-6.18.01-6.84 0-13.53-.2-20.32-1.14.35-1.91.35-1.91 1-4 1.66-1.01 3.33-2.01 5-3 3.56-4.84 4.12-9.48 4.16-15.37.01-1.04.02-2.09.03-3.17 0-1.13.01-2.25.01-3.41.01-1.17.01-2.33.02-3.54.01-2.47.02-4.94.02-7.41.01-3.76.04-7.51.07-11.27.01-2.41.01-4.81.02-7.22.02-1.67.02-1.67.04-3.37-.03-8-.7-15.55-5.49-22.18-6.58-4.72-12.45-5.44-20.4-4.58-2.47.52-4.26 1.36-6.48 2.52-.07 8.81-.12 17.61-.16 26.42-.01 4.09-.03 8.18-.07 12.27-.03 3.96-.05 7.91-.05 11.87-.01 1.5-.02 3-.04 4.5-.24 12.79-.24 12.79 3.32 24.94 3.01 1.53 3.01 1.53 6 2 .68 2.04.68 2.04 1 4-8.31 1.04-16.54 1.15-24.9 1.13-2.29-.01-4.59 0-6.89.01-1.48 0-2.96-.01-4.44-.01-.68 0-1.35.01-2.05.01-4.35-.02-8.44-.44-12.72-1.14l-1-3c.55-.29 1.11-.58 1.68-.88.72-.41 1.45-.82 2.2-1.24 1.07-.6 1.07-.6 2.17-1.2 3.37-2.9 3.87-6.66 4.22-10.97.01-1.78.01-1.78.02-3.6.01-.66.01-1.32.02-2 .02-2.17.02-4.34.03-6.51 0-1.52.01-3.04.02-4.56.01-3.18.01-6.35.01-9.53 0-4.06.03-8.12.06-12.17.02-3.14.03-6.28.03-9.41 0-1.5.01-2.99.02-4.49.13-11.32.13-11.32-4.48-21.44-2.85-1.97-2.85-1.97-6-3-1.42-.59-1.42-.59-2.88-1.19-.7-.27-1.4-.53-2.12-.81l1-3c1.25-.12 1.25-.12 2.52-.24 3.13-.31 6.25-.62 9.38-.93 2-.2 4-.39 6-.59 9.04-.91 18.05-3.63 27.1-3.24ZM1052.52734375 107.78125c9.2 8.26 14.82 20.86 15.6 33.17.68 17.92-2.09 33.73-14.69 47.42-11.96 11.12-27.96 15.43-44.05 14.98-14.2-1.46-27.39-6.03-37.32-16.69-8.82-11.34-13.75-27.23-12.07-41.66 1.85-14.44 6.69-28.2 18.14-37.79 22.08-16.7 52.64-16.2 74.39.57Zm-52.71 5.59c-9.71 13.86-9.5 35.99-7 52.16 1.8 9.93 4.54 18.07 12.63 24.41 4.24 2.89 8.58 2.68 13.55 2.06 5.39-1.99 9.2-5.49 11.91-10.52 4.81-10.9 5.46-20.99 5.47-32.79v-3.9c-.11-9.67-.76-18.44-5.19-27.17-.48-.97-.96-1.95-1.46-2.96-2.87-4.43-6.65-7.24-11.73-8.66-7.88-.76-13.03 1.35-18.18 7.37ZM310.52734375 107.78125c9.2 8.26 14.82 20.86 15.6 33.17.65 17.33-1.85 31.81-13.44 45.36-11.45 12.08-25.58 16.46-41.94 17.06-14.19-.27-27.9-4.77-38.5-14.37-10.15-10.9-13.94-25-14.62-39.56.65-13.8 4.89-28.71 14.67-38.93 22.12-19.63 54.86-20.75 78.23-2.73Zm-52.71 5.59c-9.71 13.86-9.5 35.99-7 52.16 1.8 9.93 4.54 18.07 12.63 24.41 4.24 2.89 8.58 2.68 13.55 2.06 5.57-2.06 9.1-5.64 11.98-10.75 4.45-9.75 5.21-19.32 5.21-29.9 0-2.02.02-4.03.04-6.05.01-9.91-.49-18.72-5.04-27.68-.48-.97-.96-1.95-1.46-2.96-2.87-4.43-6.65-7.24-11.73-8.66-7.88-.76-13.03 1.35-18.18 7.37ZM431.25 104.75c11.5 9.37 17.65 20.6 19.75 35.25 1.42 16.98-1.9 32.84-12.88 46.3-10.16 10.88-24.28 16.2-39.01 16.82-14.79.3-28.85-2.33-40.47-12.11-1.74-1.92-3.2-3.87-4.64-6.01-.53-.68-1.05-1.35-1.6-2.05-8.43-11.35-10.44-26.15-9.4-39.95 2.17-14.27 7.74-27.95 19.5-36.91 20.27-13.6 48.19-15.79 68.75-1.34Zm-48.87 9.18c-9.41 14.09-9.3 35.22-6.81 51.42 1.92 9.44 4.58 18.96 12.56 25.02 4.51 2.3 8.93 2.5 13.87 1.63 6.44-2.44 10.18-6.85 13-13 6.73-17.96 6.82-42.08-.14-59.91-2.68-5.87-5.44-9.24-11.17-12.34-9-2.51-15.58.01-21.31 7.18ZM672.4375 104.875c7.56 6.3 12.06 13.8 13.31 23.62.37 4.83.34 9.67.25 14.5-2.68 1.35-4.73 1.12-7.73 1.12h-3.64c-1.3-.01-2.61-.01-3.95-.02h-4.02c-3.54-.01-7.07-.02-10.61-.03-3.6-.01-7.21-.01-10.82-.02-7.07-.01-14.15-.02-21.23-.05.3 2.88.6 5.75.9 8.63.08.8.16 1.61.25 2.44 1.05 9.83 3.47 17.71 10.44 24.99 8.86 7.14 20.36 8.8 31.41 7.94 3.17-.65 6.26-1.44 9.37-2.34 2.63-.66 2.63-.66 6.63-.66-.33 2.9-.91 3.92-3.04 5.97-8.58 6.26-18.14 11.46-28.96 12.03-.93.06-1.86.11-2.81.16-13.01.39-24.21-2.08-35.19-9.16-.91-.57-1.81-1.15-2.75-1.74-11.26-11.27-15.37-25.41-15.62-40.94.03-15.08 4.48-30.42 15.37-41.32 16.64-13.72 44.04-18.05 62.44-5.12Zm-42.44 9.12c-3.47 6.86-3.66 14.47-4 22 10.1-.65 20.03-2.35 30-4-.28-2.58-.57-5.16-.87-7.74-.08-.73-.16-1.46-.24-2.22-.44-3.7-.89-6.84-2.89-10.04h-2c-.33-.98-.66-1.98-1-3-7.79-2.59-13.58-1.05-19 5ZM83 55c19.84-.54 36.05.6 51.58 14.23 6.52 7.46 10.31 16.58 14.23 25.58 1.13 2.55 2.26 5.11 3.39 7.65.29.68.59 1.35.9 2.04 2.43 5.48 4.93 10.93 7.45 16.38.39.83.77 1.66 1.17 2.52 1.53 3.3 3.06 6.61 4.61 9.91l3.21 6.93c.32.68.64 1.36.97 2.07.87 1.88 1.69 3.78 2.49 5.69.47 1.1.95 2.2 1.44 3.33.82 5.39-.96 9.22-2.96 14.2-.38.99-.76 1.98-1.16 2.99-1.21 3.15-2.45 6.28-3.7 9.42-.82 2.13-1.65 4.27-2.48 6.41-2.02 5.22-4.07 10.44-6.14 15.65h-3c-1.01-2.1-2.01-4.21-3-6.31-.56-1.17-1.11-2.35-1.69-3.55C149 187 149 187 149 184l-2-1c-.9-1.69-.9-1.69-1.81-3.9-.53-1.25-.53-1.25-1.06-2.51-.37-.91-.75-1.82-1.13-2.75-.82-1.93-1.63-3.87-2.45-5.8-.42-1-.84-2-1.27-3.03-2.01-4.73-4.09-9.43-6.18-14.13-.41-.93-.83-1.86-1.25-2.82-.84-1.88-1.68-3.77-2.52-5.66-1.27-2.83-2.52-5.66-3.78-8.5-.84-1.88-1.68-3.76-2.51-5.65-.41-.91-.82-1.83-1.24-2.78-2.19-4.9-4.4-9.8-6.66-14.67-.69-1.52-.69-1.52-1.4-3.06-.9-1.94-1.79-3.87-2.7-5.8-.4-.87-.79-1.73-1.21-2.63-.35-.76-.71-1.52-1.07-2.31-.76-2-.76-2-.76-5l-2-1c-1.15-2.65-2.22-5.3-3.25-8-3.84-9.6-7.83-16.93-16.02-23.49C85 58 85 58 83 55ZM0 55c17.97-.52 35.54.16 49.69 12.81 12.05 13.17 18.17 32.57 25.39 48.71 1.92 4.28 3.87 8.53 5.85 12.77 1.24 2.65 2.47 5.3 3.69 7.95.58 1.24 1.17 2.49 1.76 3.72.81 1.72 1.61 3.45 2.4 5.17.46.97.91 1.94 1.38 2.94 1.98 6.9-1.26 13.41-3.76 19.8-.53 1.38-.53 1.38-1.07 2.8-1.12 2.92-2.26 5.85-3.39 8.77-.77 1.99-1.54 3.98-2.3 5.97-1.87 4.87-3.75 9.73-5.64 14.59h-2c-3-5.62-3-5.62-3-9l-2-1c-.89-1.67-.89-1.67-1.8-3.86-.34-.83-.69-1.65-1.04-2.5-.38-.9-.75-1.8-1.13-2.73-.81-1.93-1.63-3.86-2.44-5.79-.43-1.01-.85-2.01-1.29-3.05-2.11-4.97-4.29-9.9-6.48-14.82-.65-1.46-.65-1.46-1.31-2.95-.87-1.96-1.75-3.93-2.62-5.89-1.35-3.03-2.7-6.06-4.04-9.09-.87-1.94-1.73-3.88-2.6-5.82-.4-.9-.79-1.8-1.2-2.72-.38-.84-.75-1.67-1.13-2.53-.32-.73-.65-1.45-.98-2.2-.64-1.4-1.33-2.78-2.06-4.13C36 121 36 121 36 118c-.99-.5-.99-.5-2-1-.88-1.66-.88-1.66-1.78-3.85-.51-1.23-.51-1.23-1.04-2.49-.37-.9-.74-1.8-1.12-2.72-.8-1.92-1.61-3.83-2.42-5.74-.43-1.01-.86-2.02-1.3-3.06-2.26-5.3-4.6-10.57-6.96-15.83-.65-1.46-.65-1.46-1.31-2.96C13.69 70.69 8.95 62.85 0 57v-2ZM1112 65h12v27h22v12h-22c.04 10.07.1 20.13.18 30.2.04 4.67.08 9.35.09 14.02.02 4.52.05 9.03.1 13.54.01 1.72.02 3.44.02 5.16 0 2.41.03 4.83.06 7.24 0 .71-.01 1.41-.01 2.14.1 4.99 1.44 7.85 4.56 11.7 4.28 2.66 8.93 2.23 13.81 2.12.79 0 1.58-.01 2.39-.02 1.93-.03 3.87-.06 5.8-.1-.33 2.86-.75 3.8-3.04 5.63-.85.5-1.71.99-2.58 1.49-.84.5-1.68 1-2.54 1.51-6.75 3.26-12.93 3.71-20.28 3.68-1.35.03-1.35.03-2.73.05-6.81.01-12.47-.79-18.04-5.05-.53-.62-1.06-1.24-1.6-1.87-.55-.6-1.09-1.2-1.65-1.82-5.63-9.56-4.93-20.16-4.83-30.88 0-1.75.01-3.51.01-5.27.01-4.59.04-9.18.07-13.78.03-4.7.05-9.4.06-14.1.04-9.19.09-18.39.15-27.59h-12v-3c.76-.28 1.52-.56 2.31-.85 10.29-3.99 18.01-8.52 23.47-18.37 2.11-4.8 3.15-9.66 4.22-14.78ZM216 58c4.43 3.96 7.66 8.3 8.21 14.32.27 7.15-1.37 11.09-5.52 16.93-4.14 4.23-7.84 4.84-13.57 5.13-5.86-.15-10.3-1.82-14.66-5.77-3.83-4.25-5.2-8.34-5.84-13.92.62-6.05 2.63-11.5 7.26-15.63 7.66-5.05 16.09-5.7 24.12-1.06Z"/>
</svg>